<svg width="24" height="25" viewBox="0 0 24 25" fill="none" xmlns="http://www.w3.org/2000/svg">
<path d="M6.98918 14.1897L6.36263 16.5287L4.07258 16.5771C3.3882 15.3077 3 13.8554 3 12.312C3 10.8196 3.36295 9.41226 4.00631 8.17303H4.0068L6.04559 8.54682L6.9387 10.5734C6.75177 11.1183 6.64989 11.7033 6.64989 12.312C6.64996 12.9727 6.76963 13.6057 6.98918 14.1897Z" fill="#FBBB00"/>
<path d="M20.8427 10.6307C20.9461 11.1751 21 11.7374 21 12.312C21 12.9563 20.9323 13.5849 20.8032 14.1911C20.3651 16.2542 19.2203 18.0557 17.6344 19.3305L17.6339 19.33L15.066 19.199L14.7025 16.9302C15.7548 16.3131 16.5772 15.3473 17.0104 14.1911H12.1979V10.6307H17.0806H20.8427Z" fill="#518EF8"/>
<path d="M17.6339 19.3301L17.6344 19.3306C16.0921 20.5703 14.1328 21.312 12 21.312C8.5726 21.312 5.59272 19.3963 4.0726 16.5772L6.9892 14.1897C7.74924 16.2181 9.706 17.6621 12 17.6621C12.986 17.6621 13.9098 17.3956 14.7025 16.9302L17.6339 19.3301Z" fill="#28B446"/>
<path d="M17.7446 5.38398L14.829 7.77095C14.0086 7.25816 13.0389 6.96193 11.9999 6.96193C9.65399 6.96193 7.66063 8.47214 6.93866 10.5733L4.00673 8.173H4.00624C5.50411 5.28509 8.52157 3.31201 11.9999 3.31201C14.1837 3.31201 16.1859 4.08988 17.7446 5.38398Z" fill="#F14336"/>
</svg>
