<svg width="131" height="129" viewBox="0 0 131 129" fill="none" xmlns="http://www.w3.org/2000/svg">
<path d="M66.9543 105.258L38.6362 99.2482C33.7793 98.2174 30.6457 93.4163 31.6724 88.5788L36.9615 63.6586C37.9882 58.8211 42.8018 55.7067 47.6586 56.7376L75.9772 62.7479C80.8341 63.7787 83.9677 68.5797 82.9409 73.4172L77.6519 98.3375C76.6252 103.175 71.8112 106.289 66.9543 105.258Z" fill="white"/>
<path d="M75.977 62.7475C80.8339 63.7783 83.9675 68.5794 82.9408 73.4168L77.6517 98.3371C76.625 103.175 71.8114 106.289 66.9546 105.258L38.6364 99.2479C33.7795 98.217 30.6459 93.416 31.6726 88.5785L36.9617 63.6583C37.9884 58.8208 42.802 55.7064 47.6588 56.7372L75.977 62.7475ZM76.2721 61.3573L47.9539 55.347C46.5785 55.0551 45.1838 55.0422 43.8087 55.3083C42.4832 55.5649 41.234 56.0681 40.0958 56.8049C38.9576 57.5413 37.9879 58.4736 37.214 59.575C36.4113 60.718 35.8567 61.9921 35.5659 63.362L30.2769 88.2823C29.9861 89.6522 29.9754 91.0418 30.2447 92.4122C30.5044 93.7334 31.0115 94.9788 31.7528 96.1141C32.4938 97.2493 33.4311 98.217 34.5378 98.9898C35.6862 99.7914 36.9659 100.346 38.3413 100.638L66.6599 106.648C68.0353 106.94 69.43 106.953 70.805 106.687C72.1306 106.431 73.3797 105.927 74.518 105.191C75.6562 104.454 76.6259 103.522 77.3997 102.42C78.2024 101.277 78.7571 100.003 79.0478 98.6334L84.3369 73.7132C84.6277 72.3432 84.6384 70.9537 84.3691 69.5832C84.1094 68.262 83.6023 67.0167 82.861 65.8814C82.12 64.7462 81.1827 63.7785 80.076 63.0056C78.9275 62.204 77.6475 61.6492 76.2721 61.3573Z" fill="#5B6575"/>
<path d="M78.4222 91.5889C73.9039 91.1679 69.4823 90.3619 69.4823 90.3619C69.4823 90.3619 69.6034 78.7717 70.8328 69.9238C71.7464 63.3688 73.2671 58.3207 75.797 60.6093C76.9609 61.6624 78.1816 63.4395 79.3849 65.6205C83.8975 73.8029 88.1331 87.6751 87.9632 90.3309C87.8549 92.0393 83.0883 92.0205 78.4222 91.5889Z" fill="white"/>
<path d="M68.7348 90.977L68.7413 90.3536C68.7422 90.2824 68.8231 83.1621 69.4383 75.9024C69.8008 71.6221 70.2762 68.1254 70.8505 65.5098C71.635 61.9372 72.5873 60.0186 73.8473 59.472C74.4005 59.232 75.2743 59.1402 76.2952 60.0638C79.6606 63.1092 83.0245 71.2491 84.7303 75.8301C85.8679 78.8859 86.9033 82.064 87.6462 84.7787C88.1697 86.6912 88.7779 89.2154 88.7039 90.379C88.6826 90.7169 88.5449 91.207 88.0108 91.6224C87.2385 92.2231 85.8357 92.5239 83.5954 92.5682C81.9527 92.6006 79.875 92.4875 77.4195 92.232C73.2626 91.7993 69.3888 91.0963 69.3503 91.0893L68.7348 90.977ZM74.712 60.7999C74.572 60.7702 74.4875 60.8071 74.4413 60.8267C73.8964 61.0631 72.0329 62.8568 70.9167 76.0215C70.4114 81.9837 70.2687 87.8539 70.2344 89.7436C71.4827 89.9567 74.4505 90.4376 77.5796 90.763C84.8443 91.5182 86.6553 90.8005 87.097 90.4572C87.2192 90.3623 87.2226 90.307 87.2239 90.2832C87.3158 88.8354 85.7771 82.8876 83.3401 76.342C80.5176 68.7616 77.5873 63.2266 75.2994 61.1566C75.04 60.9218 74.8492 60.8291 74.712 60.7999Z" fill="#5B6575"/>
<path d="M53.4489 55.4378L51.1294 61.9722L49.8104 65.6871L46.9955 73.6189C46.9955 73.6189 44.7321 74.5395 41.2151 74.903C39.9008 75.0395 38.4089 75.0944 36.7961 74.9957C34.1594 74.8363 31.1944 74.258 28.1317 72.9264C20.2525 69.4983 16.603 62.3563 15.1133 58.8385C12.2325 52.0476 11.9353 50.3138 13.6133 48.0686C14.896 46.3471 16.4737 46.318 16.4737 46.318C16.4737 46.318 16.7231 44.7778 18.0497 44.4927C22.0254 43.6392 25.7823 48.9694 25.7823 48.9694C25.7823 48.9694 26.9465 44.342 29.2244 45.9508C30.7936 47.0597 30.1074 52.221 30.1074 52.221C30.1074 52.221 31.7956 55.6792 35.3941 56.8543C37.2746 57.4684 40.0554 57.4775 42.8711 57.2312C42.9038 57.2286 42.9367 57.2264 42.9698 57.2218C44.4711 57.0876 45.9779 56.8823 47.3655 56.6575C47.9877 56.5576 48.586 56.4521 49.148 56.3489C51.6611 55.8852 53.4489 55.4378 53.4489 55.4378Z" fill="white"/>
<path opacity="0.35" d="M15.1121 58.8382C16.604 62.3556 20.2523 69.4987 28.1309 72.9262C33.0662 75.072 37.7503 75.2593 41.2157 74.9018C44.7325 74.5395 46.9956 73.618 46.9956 73.618L48.5077 67.2083C48.5077 67.2083 46.7218 64.5794 44.4466 65.0139C41.7128 65.5357 41.7563 69.2912 37.96 69.5273C27.4064 70.1839 20.3857 63.4019 18.2526 60.6259C15.2933 56.775 14.7627 54.6326 14.4244 53.7232C13.724 51.8415 13.1878 50.3658 12.9773 49.1016C12.0913 50.9765 12.6814 53.1054 15.1121 58.8382Z" fill="#5B6575"/>
<path d="M32.841 75.204C31.1214 74.839 29.4455 74.3036 27.8355 73.6028C24.2938 72.062 21.2007 69.629 18.6428 66.3706C16.9966 64.2736 15.579 61.8355 14.4298 59.1251C13.0273 55.8168 12.1672 53.5662 11.9207 51.8527C11.6845 50.2107 12.0023 48.9864 13.017 47.6261C14.016 46.2865 15.195 45.8232 15.882 45.6631C16.1462 44.9214 16.7539 44.0155 17.8918 43.7714C21.1248 43.077 24.0982 45.8445 25.5176 47.4608C25.5521 47.3788 25.589 47.2953 25.6273 47.2109C26.1719 46.0215 26.8344 45.2763 27.596 44.9966C28.0637 44.8249 28.8001 44.7466 29.6535 45.3499C30.5192 45.962 30.9581 47.3166 30.9959 49.491C31.0149 50.605 30.921 51.6269 30.8715 52.078C31.2616 52.7652 32.8309 55.2401 35.6247 56.1523C40.7247 57.8167 53.1418 54.752 53.2667 54.7209C53.5317 54.6546 53.8121 54.7391 53.996 54.9408C54.18 55.1422 54.238 55.4284 54.1474 55.6848L47.6957 73.8654C47.6252 74.0639 47.4736 74.2226 47.278 74.3019C47.183 74.3407 44.9096 75.2541 41.3723 75.6287C39.3003 75.8481 37.2191 75.8356 35.187 75.5923C34.3973 75.4978 33.6146 75.3682 32.841 75.204ZM16.4926 47.0554C16.3935 47.0609 15.2159 47.1563 14.2076 48.5081C12.8498 50.3285 12.8286 51.5531 15.7955 58.5516C18.585 65.1309 22.9526 69.8671 28.4268 72.2485C33.4145 74.4183 38.1326 74.4849 41.2124 74.1589C43.8233 73.8825 45.7086 73.2918 46.4119 73.0455L52.297 56.4622C51.0005 56.7491 48.887 57.1834 46.5444 57.533C41.3299 58.3108 37.5008 58.3183 35.165 57.5561C31.3114 56.2986 29.5154 52.6964 29.4408 52.5435C29.3772 52.413 29.3532 52.2668 29.3725 52.1231C29.3742 52.111 29.5375 50.8568 29.5126 49.4975C29.4709 47.206 28.9539 46.665 28.7966 46.554C28.403 46.2758 28.1911 46.3533 28.1112 46.3824C27.4203 46.6351 26.7531 48.153 26.4998 49.1499C26.4288 49.4295 26.2002 49.6425 25.9154 49.6945C25.6301 49.7465 25.3409 49.6286 25.174 49.3919C25.1394 49.343 21.652 44.4752 18.2063 45.2154C17.4124 45.386 17.2179 46.3675 17.2049 46.4382C17.1508 46.7995 16.8588 47.0559 16.4926 47.0554Z" fill="#5B6575"/>
<path d="M26.3791 49.0952C26.3528 49.3017 26.2833 49.48 26.2087 49.6314C26.1708 49.7097 26.1305 49.7759 26.0894 49.8439C26.0489 49.9071 26.0057 49.971 25.9646 50.0275C25.7956 50.2598 25.6269 50.446 25.4655 50.6272C25.304 50.8071 25.1489 50.978 25.0018 51.151L24.8932 51.2816C24.8584 51.3256 24.8222 51.369 24.7881 51.4137L24.6878 51.5484L24.5904 51.6855L24.4984 51.8262L24.4103 51.9702C24.3805 52.0183 24.3553 52.0685 24.3273 52.1178C24.2986 52.1669 24.2739 52.2182 24.2482 52.2687C24.1473 52.4731 24.0526 52.6855 23.9765 52.9088C23.898 53.1313 23.829 53.3619 23.7728 53.5995C23.7414 53.7182 23.7183 53.8386 23.6911 53.9607C23.6762 54.0214 23.6685 54.0829 23.6559 54.1446C23.644 54.2064 23.6329 54.2684 23.6193 54.3307L23.6184 54.335C23.6082 54.3831 23.5608 54.4137 23.5122 54.4034C23.4783 54.3962 23.4532 54.371 23.4448 54.3397C23.3761 54.0902 23.3204 53.8343 23.2908 53.5731C23.2566 53.3118 23.249 53.0454 23.259 52.7765C23.2806 52.2389 23.3991 51.6904 23.6102 51.1749L23.6929 50.9832C23.7225 50.9206 23.7535 50.8587 23.784 50.7958C23.8154 50.734 23.8486 50.6738 23.8809 50.6122C23.9138 50.5515 23.9499 50.4932 23.9846 50.4337C24.1259 50.198 24.2852 49.9795 24.4445 49.7767C24.6034 49.5742 24.7667 49.386 24.9017 49.2212C25.0424 49.0551 25.1317 48.9151 25.1826 48.84L25.2893 48.6829C25.4747 48.4105 25.8468 48.3396 26.1205 48.5248C26.3139 48.6563 26.4061 48.8797 26.3791 49.0952Z" fill="#5B6575"/>
<path d="M27.2289 73.2533C27.0458 73.2144 26.8906 73.076 26.8407 72.8832C26.7699 72.6117 26.9336 72.3351 27.2061 72.2651C29.4287 71.6953 31.463 68.8769 33.0881 64.1142C34.3479 60.4232 34.9061 56.8603 34.9115 56.8249C34.9545 56.548 35.2144 56.3583 35.4924 56.4011C35.7693 56.4437 35.9613 56.7036 35.9187 56.9805C35.9131 57.0167 35.3437 60.6558 34.0573 64.4294C33.2962 66.6626 32.4349 68.5116 31.4972 69.9253C30.2837 71.7548 28.9258 72.8729 27.4616 73.2483C27.3828 73.2685 27.3035 73.2691 27.2289 73.2533Z" fill="#5B6575"/>
<g opacity="0.35">
<g opacity="0.35">
<g opacity="0.35">
<g opacity="0.35">
<path opacity="0.35" d="M84.7822 118.867L84.8037 118.765C83.9992 118.63 84.7822 118.867 84.7822 118.867Z" fill="#5B6575"/>
</g>
</g>
</g>
</g>
<path d="M77.3091 104.533L29.4182 94.3691C29.4182 94.3691 31.4573 86.1991 36.7958 74.9953C38.936 70.5016 41.6082 65.5202 44.8918 60.3818C45.6804 59.1482 46.5054 57.9058 47.3656 56.6571C49.7688 53.1744 52.4565 49.6558 55.4528 46.2027L73.0837 49.9447C74.1873 53.5598 75.0806 57.1287 75.7976 60.609C76.2618 62.8598 76.6528 65.0722 76.979 67.2331C78.4044 76.6539 78.6197 85.1156 78.4228 91.5886C78.1796 99.574 77.3091 104.533 77.3091 104.533Z" fill="white"/>
<path d="M76.9925 73.652C77.6996 74.8776 77.8685 76.1653 78.004 77.4514C78.0725 78.0948 78.1379 78.7388 78.194 79.3837C78.2223 79.706 78.253 80.0284 78.2707 80.3514C78.291 80.6741 78.3087 80.9974 78.3268 81.3205L78.3744 82.2899C78.3892 82.613 78.4048 82.936 78.4145 83.2597L78.4631 85.2002C78.4695 85.5237 78.4831 85.8466 78.4877 86.1701L78.5015 87.1402L78.5211 88.1103C78.5283 88.4335 78.538 88.7568 78.5402 89.0802L78.5627 91.0206C78.5687 91.344 78.5641 91.6676 78.5643 91.991L78.5617 92.9613L78.5605 93.4463L78.5598 93.689L78.5559 93.9314L78.5404 94.9015C78.5351 95.225 78.5319 95.5485 78.532 95.8719C78.5292 96.1955 78.5267 96.5191 78.5272 96.843C78.5423 98.1384 78.4791 99.4337 78.294 100.72C78.2711 100.881 78.2499 101.042 78.2237 101.203L78.1428 101.684C78.0856 102.005 78.0268 102.325 77.954 102.644C77.8841 102.964 77.809 103.282 77.7201 103.599C77.6331 103.916 77.5382 104.232 77.4208 104.546C77.3984 104.606 77.3307 104.636 77.27 104.614C77.2287 104.599 77.2014 104.562 77.1949 104.522L77.1949 104.52C77.0945 103.866 77.0366 103.218 76.9891 102.572C76.9668 102.249 76.9478 101.926 76.9315 101.605L76.9122 101.122C76.908 100.961 76.9025 100.801 76.8967 100.64C76.878 99.9968 76.8773 99.3561 76.8903 98.7155C76.8991 98.3952 76.9133 98.0753 76.932 97.7555C76.947 97.4353 76.9661 97.1156 76.9836 96.7956C77.0024 96.4754 77.0186 96.1554 77.034 95.8354C77.0462 95.515 77.0521 95.1946 77.0572 94.874L77.0725 93.9121L77.0765 93.6718L77.0771 93.4312L77.0783 92.9503L77.0808 91.9883C77.0805 91.6678 77.0848 91.347 77.0791 91.0262L77.0566 89.102C77.0554 88.7813 77.0427 88.4606 77.0344 88.1401L77.0031 87.1783L76.9658 86.2169C76.9606 86.0569 76.9501 85.8965 76.9415 85.7365L76.9138 85.2562L76.801 83.3353C76.7568 82.6954 76.7083 82.0558 76.6687 81.4156C76.6491 81.0956 76.6296 80.7756 76.6125 80.4552L76.6001 80.2152L76.584 79.9751L76.5537 79.4951C76.5133 78.8552 76.4822 78.2143 76.4536 77.5731L76.4349 77.0918C76.4285 76.9315 76.4179 76.7715 76.4094 76.6111C76.3929 76.2905 76.3903 75.9687 76.4056 75.6452C76.4214 75.3215 76.4534 74.9962 76.5088 74.6684C76.5361 74.5044 76.5702 74.3398 76.6116 74.1743C76.6533 74.0088 76.6999 73.8423 76.7665 73.6742L76.7691 73.6677C76.7943 73.6041 76.8663 73.5729 76.9301 73.5981C76.9574 73.6093 76.9791 73.6288 76.9925 73.652Z" fill="#5B6575"/>
<path d="M29.3067 94.3416C29.2676 94.1623 29.2515 93.9891 29.2387 93.8158C29.2259 93.6421 29.2247 93.4729 29.2278 93.3034C29.2331 92.9641 29.2675 92.6331 29.3169 92.3061C29.3425 92.1426 29.3707 91.9801 29.4053 91.8193C29.4398 91.6585 29.4801 91.4998 29.5217 91.3413L29.6507 90.8669C29.6931 90.7086 29.737 90.5506 29.7841 90.3937C29.9695 89.7656 30.1539 89.1365 30.3637 88.5169C30.4652 88.2055 30.5706 87.8958 30.6756 87.5856C30.7276 87.4306 30.7859 87.2778 30.8412 87.1234L31.0095 86.6623L31.3518 85.7425C31.4684 85.4368 31.5925 85.1344 31.7133 84.8305C31.9572 84.2235 32.1948 83.6143 32.4535 83.0138C32.7089 82.4117 32.9541 81.8059 33.212 81.2056C33.4717 80.6061 33.7285 80.0052 33.9837 79.4035C34.0481 79.2532 34.1094 79.1019 34.1764 78.953L34.3764 78.5056L34.7759 77.6108L35.1755 76.716C35.2092 76.6414 35.2414 76.5664 35.2759 76.4924L35.3804 76.2709L35.5895 75.8275L36.4255 74.0545C36.4941 73.9063 36.5668 73.7599 36.6392 73.6133C36.7104 73.4661 36.7824 73.3195 36.852 73.172C36.9922 72.8767 37.1316 72.5813 37.2684 72.2845C37.4066 71.9884 37.5435 71.6912 37.6841 71.396C37.822 71.0995 37.9772 70.8119 38.1325 70.524C38.2896 70.2373 38.452 69.9534 38.6189 69.6717C38.7861 69.3905 38.9594 69.1122 39.1336 68.835L39.3997 68.4216C39.4443 68.353 39.4919 68.2859 39.5388 68.2182C39.5859 68.151 39.632 68.0832 39.6804 68.0162C39.8718 67.7485 40.0646 67.4822 40.2652 67.2205C40.4644 66.9577 40.669 66.6985 40.8802 66.4437C41.0914 66.1888 41.3078 65.9371 41.54 65.695C41.5845 65.6484 41.6586 65.6467 41.7054 65.6915C41.7373 65.7219 41.7483 65.7662 41.7377 65.8063L41.7374 65.8079C41.3874 67.1034 40.8762 68.2983 40.3683 69.4934C40.2397 69.7912 40.11 70.0882 39.9742 70.3824C39.8381 70.676 39.6972 70.967 39.5518 71.2553C39.2542 71.8289 38.9559 72.4019 38.6506 72.9722C38.498 73.2574 38.3477 73.5434 38.1981 73.83C38.1227 73.973 38.05 74.1174 37.9766 74.2612C37.9038 74.4056 37.83 74.5493 37.7629 74.6965L36.9359 76.4508L36.7291 76.8892L36.6258 77.1085C36.5915 77.1817 36.5596 77.2559 36.5265 77.3294L36.131 78.2147L35.7356 79.1L35.5378 79.5428C35.4719 79.6903 35.411 79.8401 35.3474 79.9885C34.3118 82.3584 33.4369 84.7936 32.5727 87.2257L32.2444 88.1365C32.1377 88.4409 32.031 88.7454 31.9208 89.0486L31.2658 90.8701C31.1528 91.1728 31.049 91.4774 30.9404 91.7811C30.8853 91.9325 30.8289 92.0841 30.7668 92.2336C30.705 92.3832 30.6437 92.5329 30.5756 92.6808C30.4399 92.9766 30.2876 93.268 30.1195 93.5553C30.0357 93.699 29.9418 93.8409 29.8465 93.9817C29.7496 94.1222 29.6469 94.2623 29.5281 94.3978L29.527 94.3992C29.4809 94.4516 29.4009 94.4571 29.3482 94.411C29.3261 94.3914 29.3126 94.3669 29.3067 94.3416Z" fill="#5B6575"/>
<path d="M45.4159 86.9107C42.4509 87.4324 38.2726 86.3048 35.4647 85.3457C33.7805 84.7707 32.9042 82.9244 33.5231 81.263C34.0878 79.747 35.7128 78.9022 37.2839 79.3129C39.9526 80.0108 43.9835 80.9278 46.6642 80.9056" fill="white"/>
<g opacity="0.35">
<g opacity="0.35">
<g opacity="0.35">
<g opacity="0.35">
<path opacity="0.35" d="M45.4167 86.9104C42.4505 87.4335 38.2727 86.3036 35.4643 85.3468C33.7802 84.7715 32.9044 82.9244 33.5231 81.2642C33.648 80.925 33.8282 80.62 34.0485 80.3533C34.3199 81.3154 35.0463 82.1362 36.0713 82.4866C38.874 83.4446 43.0451 84.5707 46.0103 84.0548L45.4167 86.9104Z" fill="#5B6575"/>
</g>
</g>
</g>
</g>
<path d="M39.6601 87.2912C38.0797 86.9558 36.5361 86.4925 35.2249 86.0448C34.2208 85.7018 33.417 84.9866 32.9614 84.0307C32.505 83.0729 32.4575 81.9985 32.8275 81.0053C33.1647 80.1001 33.8235 79.3562 34.6824 78.9105C35.5423 78.4642 36.5327 78.3535 37.4708 78.5991C41.4023 79.6269 44.6643 80.1839 46.6562 80.1675C47.0561 80.1644 48.0059 80.3627 48.1854 82.2757C48.3676 84.2192 47.6547 87.2679 45.546 87.6389C43.807 87.9443 41.7032 87.7248 39.6601 87.2912ZM36.9841 80.0009C35.814 79.7526 34.6393 80.3903 34.2184 81.5209C33.9889 82.1372 34.0182 82.8042 34.3013 83.3985C34.5835 83.991 35.0817 84.4342 35.7042 84.6468C39.7195 86.0179 43.1227 86.5638 45.286 86.1832C45.9285 86.0701 46.3011 85.1509 46.4318 84.761C46.8881 83.3968 46.7351 82.0144 46.5339 81.645C43.8215 81.6376 39.917 80.7653 37.0971 80.0278C37.0593 80.0177 37.0215 80.0088 36.9841 80.0009Z" fill="#5B6575"/>
<path d="M66.3083 91.3449C68.8059 93.026 73.0819 93.6928 76.0374 93.9568C77.8099 94.1155 79.3606 92.7843 79.4699 91.0147C79.5696 89.4 78.4278 87.968 76.8254 87.7051C74.1032 87.259 70.0474 86.4596 67.6068 85.3505" fill="white"/>
<g opacity="0.35">
<g opacity="0.35">
<g opacity="0.35">
<g opacity="0.35">
<path opacity="0.35" d="M76.0361 93.9579C73.0812 93.6914 68.805 93.0271 66.3066 91.3441L66.9298 88.4669C69.4293 90.1427 73.6982 90.808 76.6489 91.071C77.7225 91.1685 78.7139 90.7173 79.354 89.9536C79.451 90.2901 79.4935 90.6474 79.4708 91.0157C79.3597 92.7841 77.8092 94.1162 76.0361 93.9579Z" fill="#5B6575"/>
</g>
</g>
</g>
</g>
<path d="M71.4133 94.0306C69.3703 93.597 67.359 92.9431 65.8938 91.9572C64.1175 90.7616 64.7044 87.6862 65.6603 85.9843C66.6009 84.3094 67.5498 84.5137 67.914 84.679C69.7278 85.5035 72.9349 86.3195 76.9446 86.9767C77.9023 87.1339 78.7615 87.6371 79.3661 88.3938C79.9699 89.15 80.2698 90.0974 80.2102 91.0615C80.1449 92.1194 79.6647 93.0818 78.859 93.7716C78.0544 94.4601 77.0294 94.7872 75.9725 94.6928C74.5926 94.5693 72.9933 94.366 71.4133 94.0306ZM67.4259 86.0792C67.092 86.335 66.3907 87.5361 66.2535 88.9681C66.2142 89.3773 66.1813 90.3686 66.7229 90.733C68.5451 91.9595 71.8766 92.8434 76.1027 93.2211C76.7576 93.2796 77.3932 93.077 77.8918 92.6502C78.3919 92.2222 78.6895 91.6249 78.7301 90.9682C78.8071 89.7255 77.9371 88.6368 76.7065 88.4346C73.8292 87.963 69.9075 87.1738 67.4259 86.0792Z" fill="#5B6575"/>
<path d="M69.0581 83.5868L67.0175 93.2013C66.6389 94.9852 64.863 96.1341 63.072 95.754L45.2943 91.9809C43.5057 91.6013 42.3497 89.83 42.7283 88.0462L44.7689 78.4316C45.1475 76.6478 46.9228 75.5012 48.7114 75.8808L66.4891 79.654C67.5435 79.8777 68.3773 80.5835 68.8089 81.4891C69.1098 82.1217 69.2138 82.8531 69.0581 83.5868Z" fill="white"/>
<g opacity="0.35">
<g opacity="0.35">
<g opacity="0.35">
<g opacity="0.35">
<path opacity="0.35" d="M69.0574 83.5866L67.0168 93.2012C66.6382 94.985 64.8633 96.1334 63.0724 95.7533L45.295 91.9802C43.5041 91.6001 42.3486 89.8298 42.7272 88.046L43.4905 84.4498C45.5849 87.7277 50.4746 90.5442 55.285 91.5917C56.8306 91.9284 58.3375 90.9743 58.7743 89.4602C58.7788 89.445 58.7833 89.4298 58.7877 89.4149C59.1924 88.0912 60.5396 87.2356 61.9162 87.4261C63.4838 87.643 64.5464 89.0556 64.3858 90.5645C67.325 88.193 67.6996 83.0664 68.8091 81.4892C69.1102 82.1226 69.2132 82.8526 69.0574 83.5866Z" fill="#5B6575"/>
</g>
</g>
</g>
</g>
<path d="M62.9194 96.4763L45.1413 92.7031C42.9463 92.2372 41.538 90.0795 42.002 87.8934L44.0429 78.2776C44.5069 76.0914 46.6702 74.6918 48.8651 75.1576L66.6432 78.9308C68.8382 79.3967 70.2465 81.5544 69.7825 83.7406L67.7416 93.3563C67.2776 95.5425 65.1143 96.9422 62.9194 96.4763ZM48.5584 76.6026C47.1635 76.3066 45.7886 77.1961 45.4937 78.5855L43.4528 88.2013C43.158 89.5907 44.053 90.962 45.448 91.2581L63.2261 95.0313C64.621 95.3274 65.9959 94.4378 66.2908 93.0484L68.3317 83.4326C68.6266 82.0432 67.7315 80.6719 66.3365 80.3759L48.5584 76.6026Z" fill="#5B6575"/>
<path d="M61.5969 89.9497C63.1474 90.2788 64.6701 89.2936 64.9979 87.7493C65.3257 86.2049 64.3344 84.6862 62.7839 84.3571C61.2333 84.028 59.7106 85.0132 59.3829 86.5575C59.0551 88.1019 60.0463 89.6206 61.5969 89.9497Z" fill="#22A7F0"/>
<g opacity="0.7">
<g opacity="0.7">
<g opacity="0.7">
<g opacity="0.7">
<path opacity="0.7" d="M64.9978 87.7493C64.9571 87.9407 64.8993 88.1227 64.8245 88.2965C64.8367 86.9629 63.9067 85.7602 62.548 85.4718C61.1873 85.1831 59.849 85.9044 59.3184 87.1279C59.3206 86.9387 59.3417 86.7493 59.3824 86.5575C59.7103 85.0124 61.2331 84.0288 62.7844 84.3581C64.3333 84.6868 65.3257 86.2042 64.9978 87.7493Z" fill="white"/>
</g>
</g>
</g>
</g>
<g opacity="0.35">
<g opacity="0.35">
<g opacity="0.35">
<g opacity="0.35">
<path opacity="0.35" d="M64.9972 87.7488C64.6695 89.2927 63.1473 90.2776 61.5971 89.9486C60.047 89.6196 59.0561 88.1013 59.3838 86.5574C59.4596 86.2003 59.5993 85.8738 59.7911 85.5866C59.9741 86.7155 60.8359 87.67 62.0275 87.923C63.2191 88.1759 64.3939 87.6535 65.0201 86.6964C65.0779 87.0366 65.073 87.3913 64.9972 87.7488Z" fill="#5B6575"/>
</g>
</g>
</g>
</g>
<path d="M61.482 90.4915C59.634 90.0993 58.4483 88.2828 58.839 86.4421C59.2296 84.6015 61.0509 83.4232 62.8989 83.8154C64.7469 84.2076 65.9325 86.0241 65.5419 87.8648C65.1512 89.7054 63.33 90.8837 61.482 90.4915ZM62.6688 84.8993C61.421 84.6345 60.1911 85.4303 59.9273 86.6731C59.6635 87.9159 60.4642 89.1427 61.712 89.4075C62.9598 89.6724 64.1898 88.8766 64.4536 87.6338C64.7173 86.3909 63.9167 85.1642 62.6688 84.8993Z" fill="#5B6575"/>
<path d="M52.4115 94.0573C52.1108 93.9934 51.9191 93.6991 51.9826 93.4L53.3803 86.8145L50.3909 83.3939L51.8445 76.545C51.908 76.2455 52.2031 76.055 52.5034 76.1187C52.8037 76.1824 52.9959 76.4768 52.9324 76.7759L51.5936 83.0838L54.583 86.5044L53.0705 93.6309C53.007 93.93 52.7118 94.121 52.4115 94.0573Z" fill="#5B6575"/>
<path d="M53.4335 99.1179C56.5784 99.7854 59.8491 99.265 62.6501 97.6981C66.5297 95.5279 72.7625 93.2806 78.3766 96.7621C80.6295 98.1585 81.9495 100.123 82.7051 102.148C87.0564 96.0275 93.2692 96.9239 95.1104 101.307C95.1104 101.307 86.157 121.543 84.6042 121.706C82.3796 121.939 77.5295 120.168 77.5295 120.168C77.5295 120.168 60.6297 114.129 50.695 112.021C40.7603 109.912 22.8647 108.566 22.8647 108.566C22.8647 108.566 17.7132 108.214 15.7751 107.098C14.4224 106.318 14.4604 84.1899 14.4604 84.1899C17.9228 80.932 23.9644 82.6368 25.4546 89.9972C26.967 88.4536 28.9717 87.1946 31.5976 86.8338C38.1418 85.9327 42.9245 90.5179 45.5882 94.0769C47.5113 96.646 50.2886 98.4505 53.4335 99.1179Z" fill="white"/>
<g opacity="0.35">
<path d="M95.1111 101.306C95.1111 101.306 86.1573 121.543 84.6044 121.706C82.3805 121.94 77.5291 120.169 77.5291 120.169C77.5291 120.169 60.6303 114.13 50.6948 112.021C40.7613 109.913 22.8644 108.566 22.8644 108.566C22.8644 108.566 17.7133 108.215 15.7766 107.098C14.4239 106.318 14.4616 84.1893 14.4616 84.1893C15.0321 83.6533 15.671 83.2509 16.3488 82.9871C16.4599 89.5011 16.7662 98.0406 17.5974 98.5192C19.5349 99.6344 24.6856 99.9858 24.6856 99.9858C24.6856 99.9858 43.0805 98.9852 53.014 101.094C62.9495 103.202 79.3503 111.588 79.3503 111.588C79.3503 111.588 84.2017 113.359 86.4251 113.127C87.379 113.027 91.1276 105.349 93.875 99.4413C94.3871 99.958 94.8074 100.585 95.1111 101.306Z" fill="#5B6575"/>
</g>
<path d="M18.2428 108.679C17.1517 108.447 16.103 108.139 15.4049 107.737C14.9289 107.463 14.6188 106.807 14.3433 104.133C14.1821 102.567 14.0485 100.406 13.9467 97.7108C13.7631 92.8576 13.728 87.4506 13.7213 85.3513C13.7179 84.2523 14.2944 83.2385 15.2262 82.7066C17.0151 81.6845 19.141 81.5961 21.0581 82.4637C22.2665 83.0107 23.3597 83.9314 24.2196 85.1263C24.9318 86.1164 25.4863 87.2817 25.8743 88.6031C27.5226 87.2287 29.4086 86.3891 31.4958 86.1019C33.8609 85.7762 36.1929 86.1068 38.4275 87.0846C40.2316 87.8742 41.979 89.0882 43.6204 90.6934C43.913 90.9797 43.9176 91.4472 43.6311 91.7384C43.3447 92.0296 42.8751 92.0333 42.5823 91.7474C39.2039 88.4435 35.5429 87.0368 31.7011 87.5659C29.5344 87.864 27.6115 88.8556 25.9863 90.5143C25.7943 90.7102 25.5086 90.7836 25.2454 90.7062C24.9819 90.6282 24.7828 90.4116 24.7282 90.1427C24.1057 87.0672 22.5452 84.7589 20.4466 83.8096C18.969 83.141 17.3355 83.2065 15.9654 83.9896C15.494 84.2586 15.2025 84.7799 15.2044 85.3502C15.2106 87.3315 15.2434 92.4474 15.4105 97.1506C15.5023 99.7358 15.6215 101.849 15.7653 103.429C15.9663 105.643 16.1724 106.324 16.2556 106.519C17.7975 107.325 21.5623 107.738 22.9147 107.83C22.9163 107.83 22.9179 107.83 22.9196 107.83C23.0989 107.844 40.9793 109.205 50.8486 111.299C60.7183 113.394 77.6097 119.413 77.7789 119.474C77.7805 119.474 77.7825 119.475 77.784 119.475C79.0576 119.94 82.6653 121.092 84.4014 120.983C84.5541 120.841 85.0059 120.318 86.0494 118.457C86.8022 117.115 87.7432 115.291 88.8471 113.035C90.815 109.013 92.8182 104.608 93.8371 102.341C94.1711 101.597 94.0474 100.737 93.5222 100.148C92.5201 99.0242 91.1038 98.4518 89.535 98.5364C87.2872 98.6575 85.0768 100.092 83.311 102.577C83.1523 102.8 82.8823 102.917 82.6095 102.882C82.3366 102.846 82.1063 102.662 82.0104 102.405C81.1989 100.23 79.845 98.5424 77.9863 97.3899C74.6614 95.3281 70.7078 95.1407 66.2342 96.8325C65.8513 96.977 65.4232 96.7853 65.2771 96.4035C65.1313 96.0222 65.3231 95.5956 65.706 95.4506C67.8742 94.6306 69.9802 94.2159 71.9653 94.2175C74.4312 94.2196 76.7201 94.8652 78.7685 96.1355C80.5591 97.2457 81.9415 98.7794 82.8897 100.705C84.7879 98.4711 87.0831 97.1883 89.4527 97.0607C91.4532 96.9527 93.3402 97.7206 94.6305 99.1675C95.5428 100.19 95.7628 101.673 95.1914 102.946C94.1122 105.349 91.9968 109.998 89.9561 114.142C88.7993 116.492 87.8258 118.354 87.0634 119.674C85.7625 121.927 85.2235 122.385 84.6835 122.442C82.3255 122.689 77.5233 120.953 77.2788 120.864C77.0138 120.769 60.2851 114.813 50.5422 112.745C40.7978 110.677 23.0932 109.325 22.8127 109.304C22.6404 109.291 20.3624 109.128 18.2428 108.679Z" fill="#5B6575"/>
<path d="M83.3123 121.432L84.6044 121.706C86.1214 122.028 87.6849 121.434 88.5955 120.185C91.4452 116.281 96.9836 107.551 94.9081 101.065C94.8478 100.876 94.7794 100.692 94.7036 100.513C94.7036 100.513 92.1421 96.967 89.0013 100.548C86.0675 103.893 78.1552 119.179 83.3123 121.432Z" fill="#AFAFB2"/>
<g opacity="0.7">
<g opacity="0.7">
<g opacity="0.7">
<g opacity="0.7">
<path opacity="0.7" d="M87.2602 103.006C87.3366 102.927 87.4118 102.853 87.4842 102.785C91.1479 99.3158 94.4379 103.016 94.4379 103.016C94.5384 103.2 94.6312 103.39 94.7126 103.584C94.9856 104.224 95.1729 104.88 95.2861 105.551C95.4506 103.998 95.3611 102.478 94.9082 101.066C94.8479 100.876 94.7795 100.692 94.7037 100.513C94.7037 100.513 92.1422 96.9674 89.0014 100.548C88.525 101.09 87.92 101.944 87.2602 103.006Z" fill="white"/>
</g>
</g>
</g>
</g>
<path d="M95.1769 105.981C95.1442 105.974 95.1117 105.964 95.0794 105.951L87.4328 102.951C87.1184 102.828 86.9634 102.474 87.0866 102.161C87.2098 101.848 87.565 101.694 87.8789 101.817L95.5256 104.817C95.8399 104.94 95.9949 105.294 95.8717 105.608C95.7611 105.889 95.4641 106.042 95.1769 105.981Z" fill="#5B6575"/>
<path d="M94.2212 110.235C94.1945 110.23 94.1681 110.222 94.1418 110.213L85.133 107.003C84.8149 106.89 84.6488 106.541 84.7619 106.224C84.875 105.908 85.2246 105.743 85.5432 105.856L94.552 109.066C94.8701 109.179 95.0361 109.527 94.9231 109.844C94.8192 110.135 94.5163 110.298 94.2212 110.235Z" fill="#5B6575"/>
<path d="M92.5167 114.24C92.4924 114.234 92.4684 114.228 92.4443 114.22L83.2751 111.074C82.9558 110.965 82.7856 110.618 82.8948 110.3C83.0043 109.982 83.3516 109.813 83.6713 109.922L92.8405 113.068C93.1598 113.177 93.33 113.524 93.2208 113.842C93.1196 114.136 92.8146 114.303 92.5167 114.24Z" fill="#5B6575"/>
<path d="M90.0569 118.479C90.039 118.475 90.0208 118.47 90.0028 118.465L81.748 115.923C81.4253 115.823 81.2443 115.482 81.3434 115.161C81.4425 114.839 81.7849 114.659 82.1076 114.759L90.3624 117.301C90.6851 117.4 90.8665 117.742 90.767 118.063C90.6734 118.367 90.3628 118.544 90.0569 118.479Z" fill="#5B6575"/>
<g opacity="0.35">
<g opacity="0.35">
<g opacity="0.35">
<g opacity="0.35">
<path opacity="0.35" d="M83.3119 121.432L84.604 121.706C86.121 122.028 87.6845 121.433 88.5951 120.185C89.3325 119.173 90.251 117.839 91.1714 116.303C90.1237 117.42 88.3751 117.899 86.6447 117.532L85.1046 117.205C82.9931 116.362 82.6228 114.046 83.1857 111.233C81.4394 115.812 80.7013 120.291 83.3119 121.432Z" fill="#5B6575"/>
</g>
</g>
</g>
</g>
<path d="M84.478 122.302L83.1859 122.028C83.1453 122.019 83.1058 122.006 83.0677 121.99C82.0689 121.553 81.4228 120.711 81.1472 119.487C80.4975 116.6 82.0571 112.142 83.4801 108.911C85.2192 104.962 87.3425 101.513 88.541 100.146C89.6428 98.8901 90.824 98.2828 92.0509 98.3419C93.9329 98.4325 95.149 100.087 95.2 100.158C95.2268 100.194 95.2491 100.234 95.267 100.276C95.3501 100.471 95.4256 100.675 95.4914 100.882C96.4401 103.846 95.9928 107.53 94.1625 111.832C92.6743 115.329 90.5831 118.5 89.0908 120.544C88.0404 121.984 86.2303 122.674 84.478 122.302ZM83.5038 120.85L84.7309 121.11C86.011 121.382 87.334 120.878 88.1006 119.827C89.5555 117.834 91.5928 114.746 93.0359 111.355C94.7493 107.329 95.183 103.929 94.326 101.25C94.2794 101.104 94.2271 100.96 94.1703 100.821C93.9849 100.591 93.1291 99.6097 91.9868 99.5586C91.1537 99.5217 90.3042 99.9894 89.4624 100.949C88.353 102.214 86.2719 105.606 84.6003 109.402C82.6928 113.734 81.8901 117.221 82.3406 119.222C82.5233 120.034 82.904 120.568 83.5038 120.85Z" fill="#5B6575"/>
<path d="M17.068 107.372L15.7759 107.098C14.2589 106.776 13.0716 105.598 12.7467 104.087C11.7282 99.3623 10.2135 89.1347 14.7444 84.0513C14.8763 83.9029 15.0137 83.7623 15.1556 83.6297C15.1556 83.6297 18.9366 81.4298 20.3523 85.9775C21.6744 90.226 22.6954 107.408 17.068 107.372Z" fill="#AFAFB2"/>
<g opacity="0.7">
<g opacity="0.7">
<g opacity="0.7">
<g opacity="0.7">
<path opacity="0.7" d="M20.9442 88.9311C20.9065 88.828 20.8676 88.7301 20.8292 88.6385C18.8906 83.9799 14.3811 86.0252 14.3811 86.0252C14.2144 86.1525 14.0527 86.288 13.8997 86.4319C13.3903 86.9057 12.9523 87.43 12.5765 87.9965C13.0569 86.5108 13.7562 85.1582 14.7437 84.0516C14.8756 83.9031 15.013 83.7625 15.1549 83.6299C15.1549 83.6299 18.9359 81.4301 20.3516 85.9777C20.5664 86.6663 20.7729 87.6922 20.9442 88.9311Z" fill="white"/>
</g>
</g>
</g>
</g>
<path d="M12.5018 88.4336C12.2146 88.3726 12.0052 88.1123 12.018 87.8108C12.0326 87.4747 12.3175 87.2143 12.6553 87.2292L20.8614 87.5935C21.1987 87.6087 21.4605 87.8929 21.4457 88.2294C21.4311 88.5654 21.1462 88.8258 20.8084 88.811L12.6024 88.4466C12.5681 88.4451 12.5345 88.4405 12.5018 88.4336Z" fill="#5B6575"/>
<path d="M11.6467 92.7097C11.3516 92.6471 11.1409 92.3753 11.1641 92.0677C11.1894 91.7322 11.4828 91.4811 11.8195 91.5069L21.3558 92.2329C21.6929 92.2584 21.945 92.5514 21.92 92.8869C21.8947 93.2223 21.6013 93.4734 21.2647 93.4476L11.7284 92.7216C11.7005 92.7195 11.6734 92.7154 11.6467 92.7097Z" fill="#5B6575"/>
<path d="M11.5782 97.0611C11.2803 96.9979 11.0693 96.7219 11.0963 96.4118C11.1254 96.0767 11.4217 95.8291 11.7584 95.8587L21.4147 96.7089C21.7509 96.7388 22 97.034 21.9709 97.3695C21.9418 97.7045 21.6455 97.9521 21.3088 97.9226L11.6525 97.0723C11.6271 97.0703 11.6022 97.0662 11.5782 97.0611Z" fill="#5B6575"/>
<path d="M12.1041 101.934C11.7978 101.869 11.5864 101.581 11.6241 101.266C11.6642 100.932 11.9681 100.694 12.3034 100.734L20.8792 101.763C21.2149 101.804 21.4539 102.107 21.4143 102.441C21.3742 102.775 21.0703 103.013 20.735 102.973L12.1592 101.943C12.1405 101.941 12.122 101.938 12.1041 101.934Z" fill="#5B6575"/>
<g opacity="0.35">
<g opacity="0.35">
<g opacity="0.35">
<g opacity="0.35">
<path opacity="0.35" d="M17.0677 107.372L15.7756 107.098C14.2586 106.776 13.0713 105.598 12.7464 104.087C12.4836 102.862 12.1859 101.271 11.9689 99.493C12.4724 100.94 13.8759 102.087 15.6062 102.455L17.1464 102.781C19.4184 102.868 20.6975 100.903 21.3258 98.1034C21.0614 102.997 19.9162 107.39 17.0677 107.372Z" fill="#5B6575"/>
</g>
</g>
</g>
</g>
<path d="M16.9413 107.968L15.6493 107.693C13.8974 107.322 12.5232 105.956 12.1486 104.213C11.6154 101.74 10.9921 97.9931 11.0526 94.1929C11.1274 89.5187 12.2152 85.9702 14.2862 83.6465C14.4301 83.4848 14.5819 83.3294 14.7368 83.1846C14.7701 83.1535 14.8067 83.1264 14.8461 83.1036C14.9212 83.0598 16.7047 82.042 18.4612 82.7236C19.6064 83.168 20.4391 84.2027 20.9356 85.7983C21.4759 87.5334 22.0149 91.548 22.0002 95.8627C21.9881 99.3934 21.6025 104.1 19.8363 106.474C19.0871 107.481 18.1547 107.988 17.0647 107.981C17.0231 107.981 16.9816 107.976 16.9413 107.968ZM15.5173 84.1277C15.409 84.2314 15.3031 84.3417 15.2013 84.4559C13.3293 86.5566 12.3446 89.8393 12.275 94.2145C12.2163 97.8997 12.8235 101.548 13.3439 103.96C13.6176 105.233 14.6216 106.231 15.9017 106.502L17.1288 106.763C17.7915 106.748 18.3563 106.416 18.8532 105.748C20.0773 104.102 20.7607 100.589 20.7771 95.8563C20.7914 91.7088 20.2676 87.7635 19.7675 86.1572C19.3882 84.9381 18.802 84.1657 18.0256 83.8611C16.9629 83.4446 15.7834 83.9912 15.5173 84.1277Z" fill="#5B6575"/>
<path d="M31.7683 109.924C31.6834 109.906 31.6015 109.868 31.5299 109.808C31.2929 109.613 31.2595 109.264 31.4554 109.028C34.645 105.187 35.7105 100.331 34.6224 94.5975C33.8015 90.2728 31.9959 87.0495 31.9777 87.0174C31.8268 86.7509 31.921 86.413 32.1884 86.2627C32.4557 86.1127 32.795 86.2067 32.9459 86.4733C33.0232 86.6096 34.8495 89.863 35.7088 94.3599C36.2159 97.0132 36.2754 99.545 35.8862 101.885C35.3967 104.828 34.1944 107.469 32.3127 109.735C32.176 109.9 31.9642 109.965 31.7683 109.924Z" fill="#5B6575"/>
<path d="M69.063 117.839C68.8668 117.797 68.7002 117.652 68.6422 117.446C67.8432 114.611 67.8172 111.709 68.5651 108.821C69.1601 106.525 70.2428 104.235 71.7839 102.017C74.3957 98.2567 77.3861 96.0251 77.512 95.9323C77.7587 95.7501 78.107 95.8016 78.2902 96.0477C78.4736 96.2933 78.4224 96.6403 78.1758 96.8224C78.1461 96.8444 75.187 99.0564 72.6803 102.675C69.3569 107.473 68.3585 112.342 69.7128 117.148C69.7956 117.443 69.6233 117.748 69.3278 117.831C69.2383 117.856 69.1479 117.857 69.063 117.839Z" fill="#5B6575"/>
<g opacity="0.35">
<path d="M79.3849 65.6205C78.6054 66.2027 77.8012 66.7418 76.9783 67.2338C75.0248 68.4011 72.9628 69.3096 70.8328 69.9243C67.234 70.9653 63.443 71.1727 59.663 70.3891C55.9704 69.6224 52.6484 67.9846 49.81 65.687C47.9517 64.1805 46.301 62.3936 44.8912 60.3821C44.1904 59.3799 43.5481 58.3242 42.969 57.2217C44.4703 57.0874 45.9771 56.8821 47.3646 56.6574C49.7679 53.1747 52.4555 49.656 55.4518 46.2029L73.0828 49.9449C74.1863 53.56 75.0796 57.1289 75.7967 60.6093C76.961 61.6625 78.1816 63.4395 79.3849 65.6205Z" fill="#5B6575"/>
</g>
<path d="M91.9818 50.0629C91.6677 50.0307 91.4391 49.7509 91.4709 49.4381L93.1351 33.1237C93.167 32.8109 93.4473 32.5835 93.7614 32.6157C97.0556 32.9546 99.4546 35.8896 99.1199 39.1712L98.5529 44.7347C98.2182 48.0164 95.276 50.4017 91.9818 50.0629Z" fill="white"/>
<path d="M91.891 50.1905C91.7326 50.1569 91.5912 50.0713 91.4877 49.9443C91.3672 49.7971 91.3119 49.6123 91.331 49.4237L92.9953 33.1094C93.0145 32.9209 93.1063 32.7511 93.2538 32.6317C93.4012 32.5123 93.5868 32.457 93.776 32.4765C97.1428 32.8228 99.6026 35.8326 99.2605 39.1861L98.6928 44.7495C98.5273 46.3739 97.7365 47.8357 96.466 48.8657C95.1959 49.8958 93.5981 50.3706 91.9675 50.203L91.9817 50.0633L91.9675 50.203C91.9418 50.2001 91.9161 50.1959 91.891 50.1905ZM94.3708 32.853C94.167 32.8098 93.9594 32.7769 93.7477 32.7552C93.6331 32.7433 93.521 32.7768 93.4319 32.8488C93.3428 32.9212 93.2873 33.0236 93.2756 33.1378L91.6113 49.4521C91.5996 49.5663 91.6334 49.678 91.7062 49.7669C91.779 49.8559 91.8819 49.9113 91.9965 49.9232C93.5524 50.0832 95.0764 49.6301 96.2885 48.6474C97.5006 47.6648 98.2551 46.27 98.4132 44.72L98.9809 39.1566C99.2851 36.1682 97.2573 33.4656 94.3708 32.853Z" fill="#5B6575"/>
<g opacity="0.35">
<g opacity="0.35">
<g opacity="0.35">
<g opacity="0.35">
<path opacity="0.35" d="M98.8189 42.1258L98.5535 44.7352C98.2186 48.0156 95.2766 50.4018 91.9818 50.0641C91.6676 50.0322 91.4394 49.7505 91.4712 49.4381L91.912 45.1009C91.9798 45.3075 92.1648 45.4647 92.3949 45.4903L92.7834 45.5291C95.3862 45.7972 97.7711 44.3628 98.8189 42.1258Z" fill="#5B6575"/>
</g>
</g>
</g>
</g>
<path d="M91.757 50.8176C91.4555 50.7536 91.1868 50.5903 90.9892 50.3487C90.7602 50.0689 90.6545 49.7169 90.691 49.3581L92.3553 33.0437C92.3918 32.685 92.5667 32.3618 92.8472 32.1341C93.1276 31.9064 93.4808 31.8016 93.8409 31.8386C97.5597 32.2211 100.278 35.5468 99.9004 39.2518L99.3327 44.8152C99.1498 46.6098 98.276 48.225 96.8725 49.3633C95.4691 50.5013 93.704 51.0261 91.9022 50.8405C91.8537 50.8352 91.8049 50.8277 91.757 50.8176ZM92.0621 49.2859L92.0617 49.2858C92.0617 49.2858 92.0617 49.2858 92.0621 49.2859ZM93.8942 33.4194L92.2737 49.3038C93.5845 49.3861 94.8583 48.9807 95.8821 48.1507C96.9609 47.2759 97.6324 46.0345 97.7731 44.6547L98.3408 39.0914C98.624 36.3139 96.6441 33.8137 93.8942 33.4194Z" fill="#5B6575"/>
<path d="M39.7054 27.055C40.0194 27.0872 40.2481 27.3669 40.2162 27.6798L38.552 43.9941C38.5202 44.307 38.2398 44.5343 37.9257 44.5021C34.6315 44.1633 32.2325 41.2283 32.5673 37.9467L33.135 32.3833C33.469 29.1015 36.4112 26.7161 39.7054 27.055Z" fill="white"/>
<path d="M37.2577 44.5393C34.2324 43.8976 32.1068 41.0647 32.4266 37.9322L32.9943 32.3688C33.3364 29.0153 36.3532 26.569 39.7196 26.9153L39.7054 27.055L39.7196 26.9153C40.11 26.9553 40.3959 27.3049 40.3562 27.6942L38.6919 44.0085C38.6522 44.3977 38.3019 44.6816 37.9112 44.6414C37.6897 44.6189 37.4711 44.5846 37.2577 44.5393ZM39.7368 27.2016C39.7217 27.1984 39.7067 27.196 39.6908 27.1943C36.479 26.8638 33.6006 29.198 33.2745 32.3976L32.7068 37.9609C32.3803 41.1605 34.7273 44.0321 37.9395 44.3627C38.1756 44.3871 38.3875 44.2154 38.4116 43.9801L40.0759 27.6658C40.0984 27.4456 39.949 27.2466 39.7368 27.2016Z" fill="#5B6575"/>
<g opacity="0.35">
<g opacity="0.35">
<g opacity="0.35">
<g opacity="0.35">
<path opacity="0.35" d="M39.0152 39.4684L38.553 43.9944C38.5216 44.3074 38.2392 44.5343 37.9255 44.5022C36.1964 44.3236 34.7123 43.4304 33.7421 42.1461C32.8659 40.9863 32.4092 39.5055 32.5677 37.9477L32.8069 35.6033C33.5323 37.7564 35.4695 39.4033 37.8847 39.6523L38.4822 39.7135C38.7 39.7357 38.8978 39.6344 39.0152 39.4684Z" fill="#5B6575"/>
</g>
</g>
</g>
</g>
<path d="M37.1244 45.166C33.7816 44.4569 31.4335 41.3273 31.7868 37.8661L32.3545 32.3028C32.7324 28.5978 36.0659 25.8949 39.785 26.2774C40.5282 26.3538 41.0722 27.0188 40.9967 27.7595L39.3323 44.0742C39.2567 44.8153 38.5903 45.3555 37.8464 45.2789C37.6011 45.2543 37.36 45.216 37.1244 45.166ZM39.4138 27.8146C36.6416 27.6413 34.198 29.6863 33.9144 32.4637L33.3467 38.027C33.0636 40.8045 35.0435 43.3043 37.7933 43.699L39.4138 27.8146Z" fill="#5B6575"/>
<path d="M60.0448 65.8946C75.2021 69.1116 90.087 59.4811 93.2912 44.3843C96.4953 29.2875 86.8054 14.4412 71.648 11.2242C56.4907 8.00718 41.6057 17.6377 38.4016 32.7345C35.1974 47.8313 44.8874 62.6776 60.0448 65.8946Z" fill="white"/>
<path d="M59.989 66.0268C56.624 65.3126 53.4643 64.0139 50.5827 62.1591C47.5184 60.1871 44.8969 57.6723 42.7898 54.6856C40.6828 51.6985 39.1971 48.3895 38.3734 44.8504C37.5207 41.186 37.4193 37.4344 38.0715 33.6996C38.7237 29.9649 40.091 26.4702 42.1352 23.3127C44.1094 20.2628 46.6292 17.655 49.6234 15.5604C52.6177 13.4659 55.9372 11.9908 59.4884 11.1758C63.1649 10.3323 66.93 10.2373 70.6795 10.8932C74.429 11.5491 77.9387 12.9171 81.1111 14.9589C84.1754 16.9309 86.7969 19.4457 88.904 22.4325C91.011 25.4196 92.4967 28.7286 93.3204 32.2677C94.173 35.9321 94.2745 39.6836 93.6223 43.4184C92.9701 47.1532 91.6028 50.6478 89.5586 53.8053C87.5844 56.8552 85.0646 59.4631 82.07 61.5576C79.0753 63.652 75.7566 65.1269 72.2059 65.9419C68.5294 66.7855 64.7643 66.8805 61.0148 66.2245C60.6703 66.1647 60.3284 66.0988 59.989 66.0268ZM71.632 11.3635C71.3002 11.2931 70.9679 11.2288 70.6308 11.1697C55.4688 8.51707 40.9874 18.6455 38.3493 33.7478C37.0712 41.0636 38.73 48.4423 43.02 54.524C47.1113 60.3244 53.1296 64.2833 60.0493 65.7523C60.3851 65.8236 60.7222 65.8889 61.0622 65.9482C68.4068 67.2335 75.8099 65.5927 81.9069 61.3283C88.0039 57.0638 92.0656 50.6863 93.3436 43.3705C95.9235 28.6037 86.2377 14.4634 71.632 11.3635Z" fill="#5B6575"/>
<g opacity="0.35">
<g opacity="0.35">
<g opacity="0.35">
<g opacity="0.35">
<path opacity="0.35" d="M93.8839 39.5381C93.8424 40.8136 93.7095 42.1012 93.4836 43.3953C90.826 58.5976 76.3009 68.757 61.0378 66.0875C45.7755 63.4148 35.5552 48.9262 38.2096 33.7236C38.2857 33.2865 38.3724 32.8507 38.4685 32.4233C37.9908 46.1494 47.7321 58.4862 61.6969 60.93C76.5211 63.523 90.6471 54.0148 93.8839 39.5381Z" fill="#5B6575"/>
</g>
</g>
</g>
</g>
<path d="M59.8559 66.6535C56.4139 65.923 53.1822 64.5945 50.2345 62.6975C47.1006 60.6804 44.4187 58.1084 42.264 55.0534C40.1093 51.9984 38.5897 48.6138 37.7472 44.9939C36.8749 41.2456 36.7713 37.4081 37.4386 33.5885C38.1059 29.7689 39.5043 26.1942 41.5955 22.9645C43.6149 19.8453 46.1919 17.1774 49.2546 15.0355C52.3172 12.8936 55.7111 11.3845 59.3432 10.5514C63.1038 9.68838 66.9552 9.59136 70.7899 10.2624C74.625 10.9336 78.2147 12.3326 81.4596 14.4215C84.5935 16.4385 87.2754 19.0106 89.4301 22.0655C91.5848 25.1205 93.1045 28.5051 93.9469 32.125C94.8193 35.8733 94.9229 39.7108 94.2556 43.5304C93.5883 47.35 92.1899 50.9247 90.0987 54.1544C88.0793 57.2736 85.5022 59.9416 82.4396 62.0834C79.3769 64.2253 75.9823 65.7339 72.3505 66.5674C68.5899 67.4304 64.7385 67.5275 60.9039 66.8564C60.5527 66.7947 60.2028 66.7271 59.8559 66.6535ZM71.4991 11.9907C71.1749 11.9219 70.8502 11.8592 70.5212 11.8014C55.7084 9.20964 41.5608 19.1046 38.9835 33.8591C37.735 41.0064 39.3558 48.2148 43.5466 54.1567C47.5438 59.8235 53.423 63.6913 60.1838 65.1262C60.5116 65.1958 60.8414 65.2596 61.1734 65.3176C68.3489 66.5732 75.581 64.97 81.5379 60.8041C87.4948 56.6382 91.4628 50.4076 92.7109 43.2603C95.2307 28.8331 85.7679 15.0191 71.4991 11.9907Z" fill="#5B6575"/>
<path d="M93.2716 44.0866C92.4126 49.4868 89.8547 54.2201 86.1852 57.8882C83.434 60.6383 73.2921 64.6017 61.8214 62.877C51.1856 61.278 42.4198 54.096 40.6581 50.6264C38.3081 45.9979 37.3459 40.7034 38.2049 35.3032C40.4783 21.0122 53.7473 17.0537 68.9546 19.4794C84.1611 21.9048 95.545 29.7956 93.2716 44.0866Z" fill="#5B6575"/>
<path d="M59.8754 63.0696C54.6533 61.9613 50.3866 59.7009 47.6175 57.9028C44.1112 55.6261 41.1902 52.8647 40.1766 50.868C37.6887 45.9682 36.8227 40.5563 37.672 35.2179C38.2354 31.6756 39.4905 28.6192 41.4013 26.1332C43.2002 23.7937 45.5905 21.9432 48.5066 20.6328C53.8341 18.2386 60.9338 17.6563 69.0379 18.9491C77.1423 20.2421 83.7097 23.0041 88.0306 26.9372C90.3956 29.09 92.0936 31.5927 93.0773 34.3763C94.1225 37.3335 94.367 40.6294 93.8031 44.1716C92.9539 49.51 90.4512 54.3841 86.5663 58.2676C84.9524 59.8809 81.443 61.5337 77.4088 62.5802C73.8651 63.4997 68.27 64.3897 61.7411 63.4079C61.1071 63.3124 60.4844 63.1989 59.8754 63.0696ZM71.6616 20.5267C70.7535 20.334 69.8233 20.1615 68.8695 20.0093C60.9739 18.7498 54.0864 19.3041 48.9511 21.6117C43.2177 24.1884 39.7809 28.8236 38.7365 35.3878C37.9229 40.5017 38.7535 45.6878 41.1381 50.3846C41.8476 51.7821 44.124 54.354 48.2051 57.0038C51.2075 58.9532 56.0203 61.4623 61.9006 62.3463C68.249 63.3006 73.6901 62.4352 77.1364 61.5411C81.7545 60.3429 84.6915 58.6202 85.8034 57.5092C89.5274 53.7867 91.9261 49.1159 92.7397 44.002C93.7841 37.4377 91.9555 31.9627 87.3052 27.7297C83.643 24.3963 78.2715 21.9296 71.6616 20.5267Z" fill="#5B6575"/>
<g opacity="0.5">
<g opacity="0.5">
<g opacity="0.5">
<g opacity="0.5">
<path d="M88.0244 41.9051C88.9293 39.3281 88.1427 36.7069 86.2674 36.0505C84.3921 35.3941 82.1384 36.9512 81.2334 39.5282C80.3285 42.1053 81.1151 44.7265 82.9904 45.3829C84.8656 46.0392 87.1194 44.4822 88.0244 41.9051Z" fill="white"/>
</g>
</g>
</g>
</g>
<g opacity="0.5">
<g opacity="0.5">
<g opacity="0.5">
<g opacity="0.5">
<path d="M80.4789 50.5964C81.0545 49.4825 80.7427 48.1792 79.7824 47.6855C78.8222 47.1918 77.5771 47.6947 77.0015 48.8086C76.4259 49.9226 76.7378 51.2259 77.698 51.7196C78.6583 52.2133 79.9033 51.7104 80.4789 50.5964Z" fill="white"/>
</g>
</g>
</g>
</g>
<g opacity="0.35">
<path d="M90.0375 29.9002C92.8945 33.6364 94.1837 38.3461 93.2714 44.0857C92.4122 49.4872 89.8536 54.22 86.1861 57.8884C83.434 60.6384 73.2914 64.6012 61.8204 62.8781C57.7702 62.2704 53.9925 60.8518 50.7677 59.1351C64.9127 60.9542 77.275 56.076 80.687 52.665C85.345 48.0097 88.591 42.0015 89.68 35.1487C89.9728 33.3172 90.0844 31.568 90.0375 29.9002Z" fill="#5B6575"/>
</g>
<path d="M42.0607 24.1827C41.906 24.1498 41.7607 24.0688 41.6486 23.9408C41.3851 23.6391 41.4054 23.1881 41.6869 22.912C43.2214 21.2901 45.0373 19.8956 47.0838 18.7675C49.0764 17.6696 51.3041 16.8145 53.7049 16.2261C56.0555 15.6503 58.5872 15.3268 61.2294 15.2641C63.8477 15.2021 66.5875 15.396 69.3738 15.8404C72.1141 16.2775 74.7507 16.9347 77.2103 17.7929C79.6924 18.6593 81.9993 19.7329 84.0665 20.9831C86.1817 22.2627 88.0535 23.7325 89.6302 25.3519C91.2511 27.0167 92.5695 28.8498 93.5498 30.8008C93.7282 31.1073 93.6686 31.506 93.3897 31.7456C93.0747 32.0167 92.5983 31.9812 92.3258 31.6668L92.2606 31.5932L92.2181 31.5069C88.5939 24.2557 80.1811 19.0863 69.1375 17.3248C58.0327 15.5536 48.4225 17.972 42.7707 23.9598L42.7449 23.9871L42.7128 24.0147C42.5277 24.1759 42.2849 24.2303 42.0607 24.1827Z" fill="#5B6575"/>
<g opacity="0.5">
<g opacity="0.5">
<g opacity="0.5">
<g opacity="0.5">
<path d="M43.0356 44.7909C43.0356 44.7909 40.835 29.9842 49.3566 25.5826C57.8782 21.1811 68.8488 22.9545 68.4808 23.6144C68.4808 23.6144 55.8656 24.6064 49.5897 33.415C44.7502 40.2078 43.0356 44.7909 43.0356 44.7909Z" fill="white"/>
</g>
</g>
</g>
</g>
<path d="M74.3076 121.164L25.6327 110.834C24.0567 110.499 23.0491 108.955 23.3822 107.385C23.5742 106.481 24.466 105.904 25.374 106.097L76.468 116.941C77.376 117.134 77.9566 118.023 77.7646 118.928C77.4314 120.498 75.8836 121.499 74.3076 121.164Z" fill="#E6E9FA"/>
<g opacity="0.3">
<g opacity="0.3">
<g opacity="0.3">
<g opacity="0.3">
<path opacity="0.3" d="M77.7638 118.928C77.6978 119.238 77.5839 119.526 77.4319 119.786C77.2979 119.159 76.8071 118.64 76.1379 118.498L25.044 107.654C24.5905 107.558 24.1403 107.653 23.7795 107.888C23.608 107.999 23.457 108.139 23.3366 108.306C23.3035 108.006 23.3161 107.697 23.3821 107.386C23.4779 106.935 23.748 106.564 24.1103 106.331C24.4711 106.096 24.9214 106.001 25.3748 106.097L76.4684 116.941C77.3769 117.133 77.9559 118.023 77.7638 118.928Z" fill="white"/>
</g>
</g>
</g>
</g>
<g opacity="0.35">
<g opacity="0.35">
<g opacity="0.35">
<g opacity="0.35">
<path opacity="0.35" d="M77.7636 118.928C77.5972 119.712 77.1271 120.356 76.5011 120.759C75.8766 121.164 75.0944 121.331 74.3076 121.164L25.6335 110.833C24.0575 110.499 23.0485 108.956 23.3817 107.386C23.4458 107.084 23.5877 106.818 23.7842 106.605C23.9998 107.713 24.8637 108.644 26.0445 108.895L74.7186 119.225C75.5058 119.393 76.2879 119.226 76.9121 118.821C77.2241 118.619 77.4975 118.358 77.7124 118.05C77.8066 118.325 77.8277 118.626 77.7636 118.928Z" fill="#5B6575"/>
</g>
</g>
</g>
</g>
<path d="M74.1544 121.887L25.4795 111.557C23.5059 111.138 22.2398 109.198 22.657 107.232C22.9332 105.931 24.2211 105.098 25.5275 105.375L76.6215 116.219C77.9279 116.496 78.7663 117.781 78.4902 119.082C78.073 121.047 76.128 122.306 74.1544 121.887ZM25.2204 106.82C24.714 106.712 24.2145 107.035 24.1074 107.54C23.8593 108.709 24.6122 109.862 25.7858 110.111L74.4611 120.442C75.6347 120.691 76.7913 119.943 77.0394 118.774C77.1464 118.27 76.8216 117.772 76.3148 117.664L25.2204 106.82Z" fill="#5B6575"/>
<path d="M87.7452 85.8926L76.1929 116.882L25.6505 106.155L25.724 104.96L27.6789 73.1442C27.7436 72.099 28.7253 71.3576 29.7518 71.5755L86.4878 83.6171C87.5167 83.8355 88.1106 84.9113 87.7452 85.8926Z" fill="#FF66AC"/>
<path d="M87.7452 85.8926L76.1929 116.882L25.6505 106.155L25.724 104.96L27.6789 73.1442C27.7436 72.099 28.7253 71.3576 29.7518 71.5755L86.4878 83.6171C87.5167 83.8355 88.1106 84.9113 87.7452 85.8926Z" fill="#E6E9FA"/>
<g opacity="0.5">
<g opacity="0.5">
<g opacity="0.5">
<g opacity="0.5">
<path opacity="0.5" d="M29.052 75.5116C29.1168 74.4664 30.0984 73.725 31.1249 73.9429L87.7222 85.9551L87.7453 85.8932C88.1107 84.9118 87.5168 83.836 86.4883 83.6177L29.7523 71.5761C28.7258 71.3582 27.7441 72.0996 27.6794 73.1448L25.724 104.961L25.6506 106.155L27.1496 106.473L29.052 75.5116Z" fill="white"/>
</g>
</g>
</g>
</g>
<g opacity="0.35">
<g opacity="0.35">
<g opacity="0.35">
<g opacity="0.35">
<path opacity="0.35" d="M84.8931 83.2787L80.9092 82.4331C81.2499 88.2661 77.7746 100.537 66.6482 104.973C52.6809 110.543 30.6435 105.812 25.9234 105.002L25.8499 106.197L74.5978 116.543L86.1501 85.5541C86.5155 84.5728 85.9216 83.497 84.8931 83.2787Z" fill="#5B6575"/>
</g>
</g>
</g>
</g>
<path d="M76.6644 117.738L24.871 106.745L26.9401 73.0977C26.9838 72.3852 27.3359 71.7294 27.9059 71.2978C28.476 70.8663 29.2051 70.7044 29.9058 70.8531L86.6426 82.8949C87.3437 83.0437 87.9437 83.4878 88.2893 84.1136C88.6349 84.7394 88.6903 85.4818 88.4409 86.1507L76.6644 117.738ZM26.4296 105.566L75.7194 116.027L87.0506 85.6339C87.1512 85.3643 87.1297 85.0767 86.9904 84.8242C86.851 84.5717 86.6186 84.3999 86.3359 84.3399L29.5991 72.2981C29.3163 72.2381 29.0341 72.3011 28.8043 72.4748C28.5744 72.6489 28.438 72.903 28.4203 73.1902L26.4296 105.566Z" fill="#5B6575"/>
<g opacity="0.3">
<g opacity="0.3">
<g opacity="0.3">
<g opacity="0.3">
<path opacity="0.3" d="M31.2605 99.5325C30.2365 94.916 30.3654 87.434 31.5776 83.2718C32.7898 79.1096 34.9777 80.9264 34.5913 86.5053C33.5626 101.353 31.7174 101.594 31.2605 99.5325Z" fill="white"/>
</g>
</g>
</g>
</g>
<path d="M61.8949 92.3284C62.0713 91.8013 62.259 91.2704 62.2691 90.6985C62.2343 90.6288 62.2038 90.5584 62.169 90.4888C62.0239 90.399 61.8867 90.2931 61.7319 90.2175C60.6446 89.6775 59.5034 89.3129 58.2974 89.1632C56.7247 88.968 55.2063 89.1418 53.7796 89.8609C53.2633 90.12 52.7764 90.4329 52.2824 90.732C52.1497 90.8134 52.0555 90.8391 51.9153 90.7354C51.5855 90.4928 51.208 90.3354 50.813 90.2308C49.7525 89.9551 48.7238 90.0971 47.7143 90.4652C46.6198 90.8663 45.6694 91.511 44.7604 92.2242C44.3737 92.5261 44.4069 92.9611 44.8335 93.2131C45.1034 93.3688 45.3737 93.5229 45.6436 93.6789C46.2907 94.0504 46.9367 94.4195 47.5819 94.7902C47.5758 94.8113 47.5754 94.8228 47.5699 94.8329C47.5615 94.8452 47.5522 94.8594 47.5399 94.8705C47.1722 95.1793 47.1697 95.5366 47.4061 95.923C47.4312 95.9657 47.4505 96.0142 47.471 96.0588C47.5862 96.3016 47.7045 96.5475 47.8274 96.8011C47.5588 96.9296 47.2998 97.0324 47.0605 97.1722C46.9398 97.2424 46.8221 97.3569 46.7558 97.481C46.6455 97.6805 46.7101 97.9221 46.8769 98.0746C47.0534 98.2387 47.2627 98.2777 47.4796 98.1826C47.7543 98.0641 48.0214 97.929 48.3035 97.7958C48.4689 98.1456 48.6258 98.4765 48.7842 98.804C48.9662 99.1776 49.1269 99.269 49.5372 99.2444C49.6124 99.2376 49.6854 99.2373 49.773 99.2347C49.7611 99.3185 49.7534 99.3862 49.7438 99.4489C49.5815 100.457 49.4149 101.466 49.2587 102.473C49.1837 102.95 49.5105 103.252 49.9813 103.141C50.4062 103.041 50.8331 102.931 51.2553 102.807C52.2287 102.519 53.146 102.109 53.9432 101.473C54.942 100.672 55.6108 99.683 55.6769 98.3604C55.6788 98.3081 55.7394 98.2309 55.7888 98.2144C56.231 98.0471 56.6802 97.898 57.1233 97.7289C58.1252 97.3442 58.9907 96.7517 59.7325 95.9818C60.7406 94.9351 61.4367 93.6998 61.8949 92.3284ZM48.3555 93.9669C47.6088 93.5365 46.8346 93.0899 46.0392 92.6318C47.12 91.8849 48.2271 91.2672 49.558 91.1898C50.1332 91.1562 50.7586 91.3023 51.0976 91.5311C50.1901 92.3389 49.2811 93.1463 48.3555 93.9669ZM54.2297 99.5044C53.8884 100.109 53.3872 100.554 52.8081 100.922C52.0896 101.374 51.3046 101.658 50.4714 101.892C50.621 100.965 50.7653 100.058 50.9064 99.1689C52.1334 98.9702 53.333 98.777 54.5388 98.5821C54.5169 98.8971 54.3955 99.21 54.2297 99.5044ZM59.72 94.2499C59.1731 95.03 58.5288 95.7093 57.7088 96.211C57.0767 96.5953 56.3949 96.8665 55.6905 97.0869C53.7809 97.684 51.812 97.9573 49.8238 98.1198C49.7269 98.1266 49.6721 98.11 49.6296 98.0138C49.5384 97.8014 49.4298 97.5924 49.3305 97.3808C49.3235 97.3685 49.324 97.3508 49.3177 97.3154C49.3737 97.2874 49.4327 97.2605 49.4925 97.2321C50.7324 96.6427 51.9769 96.0571 53.2176 95.4662C53.5754 95.2985 53.674 94.9006 53.4375 94.6088C53.2726 94.404 53.0093 94.3506 52.7426 94.4742C51.997 94.8257 51.253 95.1775 50.5086 95.5313C49.9536 95.7937 49.403 96.0554 48.8265 96.3291C48.7032 96.0713 48.5818 95.8342 48.4787 95.5899C48.4616 95.5464 48.5076 95.4557 48.5519 95.4157C49.3 94.6912 50.0442 93.9612 50.8123 93.2563C51.5727 92.556 52.4 91.9354 53.2805 91.3917C54.107 90.8768 54.9749 90.4517 55.948 90.295C56.5721 90.1938 57.1994 90.1679 57.8278 90.2328C57.8853 90.2367 57.9545 90.3095 57.9831 90.3691C58.4372 91.3065 58.8835 92.2434 59.3314 93.1824C59.4663 93.4621 59.5977 93.7461 59.7387 94.0243C59.781 94.108 59.7752 94.1707 59.72 94.2499ZM60.3294 93.2028C59.883 92.2663 59.4464 91.3546 59.0097 90.4392C59.0143 90.4215 59.0239 90.4016 59.0309 90.3827C59.7161 90.6157 60.4026 90.8511 61.0964 91.0872C60.9211 91.8482 60.6594 92.5236 60.3294 93.2028Z" fill="#5B6575"/>
<path d="M59.7396 94.024C59.5982 93.7458 59.4672 93.4619 59.3324 93.1821C58.8848 92.2432 58.4381 91.3062 57.984 90.3689C57.9554 90.3093 57.8863 90.2365 57.8288 90.2326C57.2003 90.1677 56.573 90.1935 55.9489 90.2948C54.9755 90.4514 54.108 90.8766 53.2815 91.3915C52.4009 91.9351 51.5736 92.5557 50.8132 93.256C50.045 93.9614 49.3008 94.6913 48.5528 95.4154C48.5085 95.4554 48.4626 95.5461 48.4796 95.5896C48.5824 95.8339 48.7038 96.0709 48.8274 96.3288C49.4039 96.0552 49.9547 95.7931 50.5096 95.531C51.254 95.1772 51.998 94.825 52.7435 94.4739C53.0102 94.3503 53.273 94.4041 53.4384 94.6085C53.6748 94.9007 53.5766 95.2987 53.2185 95.4659C51.9779 96.0568 50.7334 96.6424 49.4934 97.2318C49.4336 97.2602 49.3742 97.2871 49.3186 97.3151C49.3248 97.3509 49.3245 97.3682 49.3314 97.3805C49.4307 97.5921 49.5393 97.8011 49.6305 98.0135C49.673 98.1097 49.7279 98.1263 49.8247 98.1195C51.813 97.957 53.7818 97.6837 55.6914 97.0866C56.3953 96.8666 57.0777 96.595 57.7098 96.2108C58.5294 95.7089 59.174 95.0297 59.7209 94.2496C59.7752 94.1706 59.781 94.1079 59.7396 94.024ZM57.6063 94.8564C56.6609 95.2954 55.5386 94.9007 55.0961 93.9695C54.6493 93.0387 55.0486 91.923 55.9883 91.4741C56.9106 91.0339 58.0317 91.4362 58.4804 92.3679C58.9229 93.2932 58.5263 94.4273 57.6063 94.8564Z" fill="white"/>
<path d="M60.3292 93.2024C59.8822 92.2669 59.4457 91.3545 59.0094 90.4392C59.0154 90.4209 59.0235 90.4023 59.0306 90.3827C59.7157 90.6165 60.4027 90.8515 61.0973 91.0878C60.9218 91.8475 60.6588 92.5235 60.3292 93.2024Z" fill="#DB2C2C"/>
<path d="M51.0976 91.5315C50.1896 92.3379 49.2804 93.1461 48.3555 93.9676C47.6079 93.5354 46.8336 93.0896 46.0384 92.632C47.1203 91.8841 48.227 91.2664 49.5577 91.1897C50.1329 91.1558 50.7575 91.302 51.0976 91.5315Z" fill="#DB2C2C"/>
<path d="M52.807 100.922C52.0889 101.374 51.3045 101.659 50.4707 101.892C50.6198 100.966 50.7645 100.058 50.9061 99.1688C52.1331 98.9705 53.3322 98.7776 54.5398 98.5819C54.5174 98.8976 54.395 99.2094 54.2301 99.5053C53.8888 100.11 53.3877 100.554 52.807 100.922Z" fill="#DB2C2C"/>
<path d="M58.4799 92.3678C58.0317 91.4362 56.9101 91.0342 55.9878 91.474C55.0481 91.9233 54.6488 93.0386 55.0956 93.9694C55.5381 94.9006 56.6604 95.2953 57.6058 94.8563C58.5262 94.4273 58.9228 93.2932 58.4799 92.3678ZM57.1997 94.064C56.7204 94.2881 56.1309 94.0771 55.8963 93.5977C55.6533 93.1032 55.8764 92.4997 56.3862 92.2675C56.8643 92.0469 57.4639 92.2675 57.6869 92.7465C57.9203 93.2452 57.7029 93.8296 57.1997 94.064Z" fill="#5B6575"/>
<path d="M57.1992 94.0639C56.7199 94.288 56.1304 94.077 55.8952 93.5966C55.6536 93.1032 55.8755 92.4995 56.3853 92.2673C56.8641 92.0476 57.4631 92.2669 57.6862 92.7455C57.9195 93.2446 57.7031 93.83 57.1992 94.0639Z" fill="#22A7F0"/>
<path d="M87.1361 87.5279C87.1361 87.5279 83.6121 84.8452 79.5812 85.7252C75.7212 86.568 70.826 97.3616 74.781 101.198C77.222 103.566 79.4712 102.41 80.9674 103.207C83.1865 104.39 90.5101 93.7605 87.1361 87.5279Z" fill="white"/>
<g opacity="0.35">
<path d="M87.3396 95.2714C85.8682 99.9186 82.3814 103.96 80.9681 103.207C79.4711 102.41 77.2221 103.567 74.7812 101.199C72.892 99.3654 73.0226 95.9462 74.0964 92.7795C73.9534 94.7295 74.3434 96.5092 75.5319 97.6622C77.9732 100.028 80.0232 99.6046 81.7188 99.6701C83.8151 99.7506 85.9306 97.9004 87.3396 95.2714Z" fill="#5B6575"/>
</g>
<path d="M77.3322 103.4C76.3818 103.198 75.3259 102.758 74.2639 101.727C73.3131 100.805 72.7576 99.5211 72.6128 97.9114C72.4911 96.5606 72.6731 94.9845 73.1384 93.3536C73.6896 91.4221 74.6006 89.5139 75.7025 87.9803C76.5446 86.8087 77.8734 85.3411 79.4208 85.0033C83.738 84.0608 87.4302 86.8228 87.5852 86.9408L87.7122 87.0375L87.7879 87.1776C89.3321 90.03 88.7426 93.3928 87.9759 95.7111C87.1122 98.3234 85.5621 100.96 83.93 102.592C82.2954 104.226 81.2264 104.183 80.6176 103.858C80.2226 103.648 79.6731 103.62 79.0365 103.587C78.5335 103.562 77.9555 103.532 77.3322 103.4ZM82.9279 86.4658C81.8252 86.2317 80.7585 86.2249 79.7411 86.4473C78.9043 86.63 77.8717 87.503 76.9094 88.8424C75.9183 90.2211 75.064 92.0135 74.5653 93.7606C73.6847 96.8455 73.9516 99.364 75.2976 100.67C76.6548 101.987 77.9036 102.05 79.1108 102.112C79.8913 102.152 80.6284 102.189 81.3162 102.556C81.3973 102.588 82.0503 102.485 83.2135 101.196C85.9262 98.1917 88.5588 91.989 86.561 88.0255C86.2802 87.8327 85.5515 87.3646 84.5527 86.965C84.0038 86.7456 83.4615 86.579 82.9279 86.4658Z" fill="#5B6575"/>
<path d="M106.838 48.6374C105.746 46.9026 105.193 44.8124 105.393 42.6178C105.878 37.291 110.606 33.3714 115.953 33.8633C121.3 34.3552 125.242 39.0721 124.757 44.3989C124.272 49.7258 119.544 53.6454 114.197 53.1535C112.71 53.0167 111.332 52.552 110.127 51.8393L105.64 52.8903L106.838 48.6374Z" fill="#FF0068"/>
<g opacity="0.5">
<path opacity="0.5" d="M115.784 35.7183C110.789 35.2588 106.336 38.6492 105.375 43.4397C105.37 43.0982 105.381 42.7535 105.412 42.4061C105.897 37.0792 110.625 33.1596 115.972 33.6515C121.319 34.1434 125.261 38.8603 124.776 44.1872C124.744 44.5366 124.693 44.879 124.626 45.2155C124.549 40.3272 120.78 36.1781 115.784 35.7183Z" fill="white"/>
</g>
<path d="M105.493 53.5854C105.355 53.5561 105.226 53.4865 105.125 53.3817C104.951 53.1997 104.885 52.9397 104.953 52.6972L106.067 48.7409C104.963 46.863 104.484 44.7305 104.682 42.5522C104.934 39.7868 106.252 37.2865 108.393 35.5114C110.533 33.7368 113.241 32.8997 116.017 33.1552C118.793 33.4106 121.305 34.7274 123.089 36.8632C124.874 38.9991 125.718 41.6983 125.467 44.4638C125.215 47.2292 123.897 49.7294 121.756 51.5041C119.616 53.2788 116.908 54.1158 114.132 53.8604C112.671 53.7258 111.287 53.3002 110.016 52.5946L105.804 53.5814C105.7 53.6067 105.594 53.6069 105.493 53.5854ZM116.944 34.7309C116.6 34.6578 116.248 34.6042 115.888 34.5711C113.492 34.3506 111.154 35.0732 109.306 36.6052C107.458 38.1374 106.32 40.2959 106.103 42.6831C105.923 44.6549 106.386 46.5837 107.442 48.2605C107.548 48.4305 107.579 48.6374 107.524 48.8304L106.653 51.9227L109.962 51.1476C110.141 51.1057 110.331 51.1346 110.49 51.2285C111.645 51.9126 112.914 52.3222 114.261 52.4461C119.208 52.9012 123.597 49.2619 124.046 44.3341C124.462 39.7634 121.345 35.6649 116.944 34.7309Z" fill="#5B6575"/>
<g opacity="0.3">
<path opacity="0.3" d="M106.782 48.545C109.471 50.7616 113.151 51.707 116.783 50.7663C120.81 49.7234 123.75 46.6281 124.777 42.8972C124.808 43.3904 124.803 43.8915 124.756 44.3989C124.271 49.7257 119.544 53.6453 114.196 53.1534C112.709 53.0167 111.331 52.5519 110.126 51.8392L105.64 52.8902L106.838 48.6374C106.818 48.6067 106.801 48.5756 106.782 48.545Z" fill="#5B6575"/>
</g>
<path d="M112.631 40.2095C113.628 39.5644 114.932 39.9946 115.581 40.9892L115.682 41.1438L115.837 41.0435C116.834 40.3984 118.2 40.5347 118.849 41.5292C119.498 42.5237 119.216 43.8532 118.219 44.4983L118.064 44.5986L114.929 46.6268C114.666 46.7968 114.314 46.7222 114.143 46.46L112.102 43.3333L112.001 43.1787C111.352 42.1837 111.634 40.8546 112.631 40.2095Z" fill="white"/>
</svg>
