<svg width="24" height="25" viewBox="0 0 24 25" fill="none" xmlns="http://www.w3.org/2000/svg">
<path fill-rule="evenodd" clip-rule="evenodd" d="M3.51017 10.1005L2.43587 13.6899C2.33789 14.0173 2.44521 14.376 2.70175 14.5783L12 21.912L3.51017 10.1005Z" fill="#FCA326"/>
<path fill-rule="evenodd" clip-rule="evenodd" d="M20.4898 10.1005L21.5641 13.6899C21.6621 14.0173 21.5548 14.376 21.2983 14.5783L12 21.912L20.4898 10.1005Z" fill="#FCA326"/>
<path fill-rule="evenodd" clip-rule="evenodd" d="M12 21.9119L8.46473 10.1004H3.51015L12 21.9119Z" fill="#FC6D26"/>
<path fill-rule="evenodd" clip-rule="evenodd" d="M12 21.9119L15.5353 10.1004H20.4898L12 21.9119Z" fill="#FC6D26"/>
<path fill-rule="evenodd" clip-rule="evenodd" d="M20.4897 10.1005H15.5352L17.6645 2.98655C17.774 2.62044 18.251 2.62054 18.3605 2.98655L20.4897 10.1005Z" fill="#E24329"/>
<path fill-rule="evenodd" clip-rule="evenodd" d="M3.5103 10.1005H8.46487L6.33558 2.98655C6.22606 2.62044 5.74902 2.62054 5.6395 2.98655L3.5103 10.1005Z" fill="#E24329"/>
<path fill-rule="evenodd" clip-rule="evenodd" d="M12 21.912L15.5352 10.1005H8.4647L12 21.912Z" fill="#E24329"/>
</svg>
