<svg width="24" height="25" viewBox="0 0 24 25" fill="none" xmlns="http://www.w3.org/2000/svg">
<path fill-rule="evenodd" clip-rule="evenodd" d="M3.118 12.779C2.961 12.488 2.961 12.135 3.118 11.844C5.01 8.34501 8.505 5.31201 12 5.31201C15.495 5.31201 18.99 8.34501 20.882 11.845C21.039 12.136 21.039 12.489 20.882 12.78C18.99 16.279 15.495 19.312 12 19.312C8.505 19.312 5.01 16.279 3.118 12.779Z" stroke="#828282" stroke-width="1.5" stroke-linecap="round" stroke-linejoin="round"/>
<path d="M14.1213 10.1907C15.2929 11.3623 15.2929 13.2618 14.1213 14.4333C12.9497 15.6049 11.0502 15.6049 9.87866 14.4333C8.70709 13.2618 8.70709 11.3623 9.87866 10.1907C11.0502 9.01912 12.9497 9.01912 14.1213 10.1907" stroke="#828282" stroke-width="1.4286" stroke-linecap="round" stroke-linejoin="round"/>
</svg>
