<svg width="21" height="21" viewBox="0 0 21 21" fill="none" xmlns="http://www.w3.org/2000/svg">
<path d="M20.4609 2.44531L17.9609 18.6562C17.9219 19.0469 17.6875 19.3984 17.3359 19.5938C17.1406 19.6719 16.9453 19.75 16.7109 19.75C16.5547 19.75 16.3984 19.7109 16.2422 19.6328L11.4766 17.6406L9.48438 20.6094C9.32812 20.8828 9.05469 21 8.78125 21C8.35156 21 8 20.6484 8 20.2188V16.4688C8 16.1562 8.07812 15.8828 8.23438 15.6875L16.75 4.75L5.26562 15.1016L1.24219 13.4219C0.8125 13.2266 0.5 12.8359 0.5 12.3281C0.460938 11.7812 0.695312 11.3906 1.125 11.1562L18.625 1.19531C19.0156 0.960938 19.5625 0.960938 19.9531 1.23438C20.3438 1.50781 20.5391 1.97656 20.4609 2.44531Z" fill="black"/>
</svg>
