<svg width="17" height="17" viewBox="0 0 17 17" fill="none" xmlns="http://www.w3.org/2000/svg">
<path d="M16.625 8.5C16.625 9.20312 16.0391 9.78906 15.375 9.78906H9.75V15.4141C9.75 16.0781 9.16406 16.625 8.5 16.625C7.79688 16.625 7.25 16.0781 7.25 15.4141V9.78906H1.625C0.921875 9.78906 0.375 9.20312 0.375 8.5C0.375 7.83594 0.921875 7.28906 1.625 7.28906H7.25V1.66406C7.25 0.960938 7.79688 0.375 8.5 0.375C9.16406 0.375 9.75 0.960938 9.75 1.66406V7.28906H15.375C16.0391 7.25 16.625 7.83594 16.625 8.5Z" fill="white"/>
</svg>
